<?xml version="1.0" encoding="utf-8"?>
<!-- Generator: Adobe Illustrator 23.0.1, SVG Export Plug-In . SVG Version: 6.00 Build 0)  -->
<svg version="1.1" id="Calque_1" xmlns="http://www.w3.org/2000/svg" xmlns:xlink="http://www.w3.org/1999/xlink" x="0px" y="0px"
	 viewBox="0 0 700 500" style="enable-background:new 0 0 700 500;" xml:space="preserve">
<style type="text/css">
	.st0{fill:none;stroke:#000000;stroke-width:13.9267;stroke-linecap:round;stroke-linejoin:round;stroke-miterlimit:10;}
</style>
<path class="st0" d="M144.17,246.29c21.38,0,48.51,17,17.58,31.09c-60.85,27.72-21.66,55.72,20.58,23.95
	c40.12-30.18,45.43-77.26,51.07-113.07c9.88-62.77-72.29-3.19-3.39,3.07c74.04,6.72,31.95,51.85,19.15,68.81
	c-34.07,45.15-1.24,69.34,41.03,35.77"/>
<path class="st0" d="M390.9,219.36c7.7-26.55-38.88-43.59-82.08,21.31c-58.69,88.18,36.31,94.64,75.86,3.07
	c0,0-14.69,97.04-70.89,151.75c-43.95,42.78-102.94,7.22-23.61-46.26c46.49-31.33,86.77-35.38,124.44-84.06"/>
<path class="st0" d="M425.59,210.56c0,0,63.46-6.63,92.31-83.73c19.68-52.59-8.74-143.01-85.55,61.18
	c-48.74,129.58,12.43,156.94,70.57,85.97c39.4-48.1,2.42-51.96-21.22-36.42c-24.46,16.08-19.06,42.53,9.16,38.57
	c40.55-5.7,51.58-17.13,61.12-24.08c4.72-3.43,9.08-5.77,16.47-5.77"/>
</svg>
