<?xml version="1.0" encoding="utf-8"?>
<!-- Generator: Adobe Illustrator 23.0.1, SVG Export Plug-In . SVG Version: 6.00 Build 0)  -->
<svg version="1.1" id="_x30_" xmlns="http://www.w3.org/2000/svg" xmlns:xlink="http://www.w3.org/1999/xlink" x="0px" y="0px"
	 viewBox="0 0 841.89 889.59" style="enable-background:new 0 0 841.89 889.59;" xml:space="preserve">
<style type="text/css">
	.st0{fill:none;stroke:#FF0000;stroke-width:0.01;stroke-linecap:round;stroke-linejoin:round;stroke-miterlimit:10;}
</style>
<g>
	<g id="LINE_114_">
		<line class="st0" x1="163.52" y1="294.1" x2="167.78" y2="294.1"/>
	</g>
	<g id="LINE_115_">
		<line class="st0" x1="167.78" y1="294.1" x2="198.96" y2="294.1"/>
	</g>
	<g id="LINE_116_">
		<line class="st0" x1="198.96" y1="294.1" x2="198.96" y2="328.11"/>
	</g>
	<g id="LINE_117_">
		<line class="st0" x1="198.96" y1="328.11" x2="162.11" y2="328.11"/>
	</g>
	<g id="LINE_118_">
		<line class="st0" x1="162.11" y1="328.11" x2="148.52" y2="328.11"/>
	</g>
	<g id="LINE_119_">
		<line class="st0" x1="148.52" y1="328.11" x2="111.67" y2="328.11"/>
	</g>
	<g id="LINE_120_">
		<line class="st0" x1="111.67" y1="294.1" x2="111.67" y2="328.11"/>
	</g>
	<g id="LINE_121_">
		<line class="st0" x1="111.67" y1="294.1" x2="142.85" y2="294.1"/>
	</g>
	<g id="LINE_122_">
		<line class="st0" x1="142.85" y1="294.1" x2="147.11" y2="294.1"/>
	</g>
	<g id="LINE_123_">
		<line class="st0" x1="311.21" y1="395.64" x2="311.21" y2="399.9"/>
	</g>
	<g id="LINE_124_">
		<line class="st0" x1="311.21" y1="399.9" x2="311.21" y2="431.08"/>
	</g>
	<g id="LINE_125_">
		<line class="st0" x1="311.21" y1="431.08" x2="277.2" y2="431.08"/>
	</g>
	<g id="LINE_126_">
		<line class="st0" x1="277.2" y1="431.08" x2="277.2" y2="394.23"/>
	</g>
	<g id="LINE_127_">
		<line class="st0" x1="277.2" y1="394.23" x2="277.2" y2="380.64"/>
	</g>
	<g id="LINE_128_">
		<line class="st0" x1="277.2" y1="380.64" x2="277.2" y2="343.79"/>
	</g>
	<g id="LINE_129_">
		<line class="st0" x1="311.21" y1="343.79" x2="277.2" y2="343.79"/>
	</g>
	<g id="LINE_130_">
		<line class="st0" x1="311.21" y1="343.79" x2="311.21" y2="374.98"/>
	</g>
	<g id="LINE_131_">
		<line class="st0" x1="311.21" y1="374.98" x2="311.21" y2="379.23"/>
	</g>
	<g id="POLYLINE_95_">
		<polyline class="st0" points="410.35,299.86 407.77,302.17 404.99,304.23 403.51,305.14 401.98,305.95 400.49,306.6 
			398.95,307.14 397.45,307.52 395.92,307.74 394.7,307.79 393.46,307.72 392.54,307.56 391.63,307.3 		"/>
	</g>
	<g id="POLYLINE_96_">
		<polyline class="st0" points="391.63,307.3 390.35,306.72 389.2,305.9 388.53,305.23 387.95,304.49 387.07,302.85 386.66,301.55 
			386.4,300.22 		"/>
	</g>
	<g id="POLYLINE_97_">
		<polyline class="st0" points="386.4,300.22 386.29,298.48 386.37,296.75 386.6,295.16 386.95,293.59 387.49,291.83 388.15,290.11 
			388.94,288.36 389.84,286.67 391.04,284.68 392.34,282.75 394.95,279.42 		"/>
	</g>
	<g id="LINE_132_">
		<line class="st0" x1="441.36" y1="245.24" x2="441.35" y2="245.27"/>
	</g>
	<g id="POLYLINE_98_">
		<polyline class="st0" points="441.35,245.27 438.5,252.99 436.63,257.65 433.97,263.8 431.1,269.85 428,275.79 424.62,281.58 
			420.95,287.2 418.98,289.92 416.93,292.58 414.91,295 412.81,297.34 410.35,299.86 		"/>
	</g>
	<g id="ARC">
		<path class="st0" d="M501.18,148.17c-0.42,1.11-0.83,2.23-1.24,3.35"/>
	</g>
	<g id="ELLIPSE">
		<path class="st0" d="M540.66,71.32c-1.25,1.17-2.58,2.62-3.96,4.33"/>
	</g>
	<g id="LINE_133_">
		<line class="st0" x1="358.33" y1="142.57" x2="355.64" y2="142.01"/>
	</g>
	<g id="POLYLINE_99_">
		<polyline class="st0" points="355.64,142.01 353.25,141.42 350.97,140.62 349.76,140.03 348.7,139.35 		"/>
	</g>
	<g id="LINE_134_">
		<line class="st0" x1="348.7" y1="139.35" x2="347.05" y2="138.1"/>
	</g>
	<g id="LINE_135_">
		<line class="st0" x1="347.05" y1="138.1" x2="348.14" y2="136.34"/>
	</g>
	<g id="ARC_1_">
		<path class="st0" d="M349.43,134.81c-0.49,0.45-0.93,0.97-1.29,1.53"/>
	</g>
	<g id="LINE_136_">
		<line class="st0" x1="311.21" y1="394.79" x2="311.21" y2="395.64"/>
	</g>
	<g id="LINE_137_">
		<line class="st0" x1="621.02" y1="394.79" x2="311.21" y2="394.79"/>
	</g>
	<g id="POLYLINE_100_">
		<polyline class="st0" points="730.22,285.59 730,292.49 729.35,299.36 728.27,306.17 726.76,312.9 724.82,319.52 722.47,326 
			719.71,332.32 716.55,338.46 713.01,344.38 709.1,350.07 705.3,354.95 701.24,359.61 696.91,364.03 692.35,368.21 687.56,372.12 
			682.55,375.76 677.35,379.11 671.73,382.29 665.93,385.12 659.98,387.61 653.88,389.74 647.67,391.5 641.37,392.89 634.99,393.9 
			628.57,394.54 624.79,394.73 621.02,394.79 		"/>
	</g>
	<g id="POLYLINE_101_">
		<polyline class="st0" points="621.02,176.39 627.91,176.61 634.78,177.26 641.59,178.34 648.32,179.85 654.94,181.79 
			661.42,184.14 667.75,186.91 673.88,190.06 679.8,193.6 685.49,197.51 690.37,201.31 695.03,205.37 699.46,209.7 703.63,214.26 
			707.55,219.05 711.18,224.06 714.53,229.26 717.71,234.88 720.55,240.68 723.04,246.63 725.16,252.73 726.93,258.94 
			728.32,265.24 729.33,271.62 729.96,278.04 730.15,281.82 730.22,285.59 		"/>
	</g>
	<g id="LINE_138_">
		<line class="st0" x1="581.78" y1="176.39" x2="621.02" y2="176.39"/>
	</g>
	<g id="POLYLINE_102_">
		<polyline class="st0" points="570.23,179.96 573.24,178.52 574.76,177.87 577.07,177.07 579.4,176.57 581.78,176.39 		"/>
	</g>
	<g id="LINE_139_">
		<line class="st0" x1="561.09" y1="183.98" x2="570.23" y2="179.96"/>
	</g>
	<g id="POLYLINE_103_">
		<polyline class="st0" points="557.52,170.53 558.95,172.38 560.07,174.42 560.84,176.61 561.23,178.67 561.35,180.78 
			561.2,182.99 561.09,183.98 		"/>
	</g>
	<g id="POLYLINE_104_">
		<polyline class="st0" points="544,165.22 546.64,165.36 549.25,165.8 551.76,166.58 554.1,167.73 555.34,168.56 556.49,169.5 
			557.52,170.53 		"/>
	</g>
	<g id="POLYLINE_105_">
		<polyline class="st0" points="523.24,171.94 526.28,170.12 529.47,168.56 532.76,167.27 536.16,166.25 539.63,165.56 
			541.81,165.31 544,165.22 		"/>
	</g>
	<g id="POLYLINE_106_">
		<polyline class="st0" points="510.57,196.25 510.17,194.97 509.9,193.65 509.76,192.18 509.76,190.71 509.9,189.25 510.17,187.81 
			510.58,186.4 511.09,185.02 511.72,183.68 512.45,182.39 513.54,180.76 514.75,179.22 516.12,177.71 517.58,176.3 520.68,173.74 
			523.24,171.94 		"/>
	</g>
	<g id="POLYLINE_107_">
		<polyline class="st0" points="527.35,206.65 524.77,206.34 522.04,205.75 519.4,204.87 516.92,203.64 515.76,202.9 514.68,202.06 
			513.37,200.81 512.23,199.4 511.28,197.85 510.57,196.25 		"/>
	</g>
	<g id="POLYLINE_108_">
		<polyline class="st0" points="502.99,220.09 504.44,220.01 505.87,219.81 508.66,219.1 510.43,218.46 512.16,217.71 
			514.24,216.65 516.25,215.47 519.71,213.13 523,210.55 527.35,206.65 		"/>
	</g>
	<g id="ELLIPSE_1_">
		<path class="st0" d="M498.3,218.97c1.29,0.74,2.87,1.12,4.7,1.12"/>
	</g>
	<g id="POLYLINE_109_">
		<polyline class="st0" points="491.22,197.83 491.25,200.1 491.45,203.5 491.9,206.89 492.66,210.24 493.2,211.88 493.85,213.49 
			494.97,215.55 495.65,216.53 496.42,217.44 497.61,218.52 498.29,218.97 		"/>
	</g>
	<g id="ARC_2_">
		<path class="st0" d="M491.22,197.83c0.05-0.45,0.06-0.9,0.03-1.36"/>
	</g>
	<g id="ELLIPSE_2_">
		<path class="st0" d="M496.13,167.94c-3.03,10.82-4.67,20.42-4.88,28.53"/>
	</g>
	<g id="POLYLINE_110_">
		<polyline class="st0" points="559.23,108.09 556.61,114.55 553.61,120.85 551.97,123.93 550.23,126.95 547.76,130.89 
			545.11,134.7 542.28,138.39 538.44,142.84 534.33,147.03 529.94,150.95 525.3,154.55 522.16,156.71 518.93,158.73 515.63,160.58 
			512.24,162.29 508.82,163.83 505.34,165.2 501.86,166.39 496.68,167.81 496.13,167.94 		"/>
	</g>
	<g id="POLYLINE_111_">
		<polyline class="st0" points="550.79,54.35 552.72,55.24 554.5,56.4 556.1,57.8 557.66,59.59 559,61.57 560.13,63.69 
			561.28,66.53 562.17,69.48 562.83,72.5 563.37,76.32 563.64,80.18 563.67,84.06 563.49,88.02 563.1,91.98 562.5,95.91 
			561.7,99.81 560.7,103.66 559.23,108.09 		"/>
	</g>
	<g id="ARC_3_">
		<path class="st0" d="M550.79,54.35c-1.65-0.62-3.39-0.95-5.16-0.95"/>
	</g>
	<g id="POLYLINE_112_">
		<polyline class="st0" points="521.11,71.99 523.11,69.2 525.22,66.5 527.19,64.18 529.27,61.97 531.61,59.76 534.11,57.75 
			536.77,56.01 538.17,55.26 539.61,54.62 541.09,54.1 542.6,53.71 544.11,53.48 545.63,53.4 		"/>
	</g>
	<g id="ELLIPSE_3_">
		<path class="st0" d="M521.11,71.99c-10.17,14.69-21.52,38.59-33.71,71"/>
	</g>
	<g id="ELLIPSE_4_">
		<path class="st0" d="M487.4,142.98c-7.37,19.59-11.46,36.78-12.15,51.07"/>
	</g>
	<g id="LINE_140_">
		<line class="st0" x1="468.14" y1="202.63" x2="475.25" y2="194.05"/>
	</g>
	<g id="POLYLINE_113_">
		<polyline class="st0" points="471.35,183.81 470.6,188.93 468.73,199.58 468.14,202.63 		"/>
	</g>
	<g id="ARC_4_">
		<path class="st0" d="M471.35,183.81c0.5-3.99-1.99-7.74-5.86-8.82"/>
	</g>
	<g id="ARC_5_">
		<path class="st0" d="M465.49,175c-0.7-0.19-1.42-0.29-2.15-0.29"/>
	</g>
	<g id="ARC_6_">
		<path class="st0" d="M463.34,174.71c-3.22,0-6.13,1.92-7.4,4.87"/>
	</g>
	<g id="POLYLINE_114_">
		<polyline class="st0" points="415.71,218.39 417.29,218.23 418.85,217.93 420.75,217.4 422.6,216.75 424.75,215.82 426.83,214.76 
			430.03,212.84 433.05,210.68 435.92,208.32 438.75,205.67 441.42,202.86 443.92,199.9 445.7,197.6 447.38,195.24 450.5,190.34 
			453.28,185.26 455.95,179.58 		"/>
	</g>
	<g id="ARC_7_">
		<path class="st0" d="M414.87,218.42c0.28,0,0.56-0.01,0.84-0.02"/>
	</g>
	<g id="POLYLINE_115_">
		<polyline class="st0" points="409.64,216.19 410.22,216.95 410.97,217.54 411.79,217.94 412.64,218.19 413.76,218.37 
			414.87,218.42 		"/>
	</g>
	<g id="POLYLINE_116_">
		<polyline class="st0" points="419.77,185.21 417.1,189.41 414.64,193.71 412.67,197.64 410.96,201.7 410.24,203.79 409.61,205.93 
			409.23,207.58 408.94,209.25 408.78,210.94 408.77,212.66 408.89,213.85 409.15,215.03 409.64,216.19 		"/>
	</g>
	<g id="POLYLINE_117_">
		<polyline class="st0" points="454.2,158.1 452.61,158.19 451.05,158.43 449.36,158.84 447.71,159.38 445.76,160.18 443.87,161.1 
			441.88,162.23 439.95,163.48 436.34,166.19 432.96,169.18 430.82,171.29 428.78,173.48 424.93,178.07 421.36,182.87 
			419.77,185.21 		"/>
	</g>
	<g id="ELLIPSE_5_">
		<path class="st0" d="M457.87,158.76c-1.04-0.43-2.27-0.65-3.67-0.65"/>
	</g>
	<g id="POLYLINE_118_">
		<polyline class="st0" points="460.17,163.54 460.32,162.31 460.29,161.67 460.04,160.72 459.73,160.16 459.33,159.68 
			458.36,158.99 457.87,158.76 		"/>
	</g>
	<g id="ARC_8_">
		<path class="st0" d="M460.17,163.54c-0.9,4.36,1.9,8.63,6.26,9.54"/>
	</g>
	<g id="ARC_9_">
		<path class="st0" d="M466.44,173.08c0.54,0.11,1.09,0.17,1.65,0.17"/>
	</g>
	<g id="ARC_10_">
		<path class="st0" d="M468.08,173.25c3.82-0.02,7.11-2.7,7.89-6.43"/>
	</g>
	<g id="POLYLINE_119_">
		<polyline class="st0" points="464.09,143.87 466.61,145.12 468.95,146.7 471.03,148.59 472.83,150.75 474.29,153.16 
			475.38,155.75 476.09,158.47 476.42,161.26 476.37,164.09 475.97,166.82 		"/>
	</g>
	<g id="ELLIPSE_6_">
		<path class="st0" d="M464.09,143.87c-2.98-1.25-6.3-1.88-9.87-1.88"/>
	</g>
	<g id="POLYLINE_120_">
		<polyline class="st0" points="406.34,176.27 408.55,173.05 410.86,169.9 413.2,166.92 415.63,164.02 419.1,160.25 422.76,156.67 
			426.63,153.33 429.89,150.86 433.29,148.61 436.84,146.6 440.24,145 443.76,143.7 447.37,142.74 449.81,142.3 452.27,142.05 
			454.22,141.99 		"/>
	</g>
	<g id="ELLIPSE_7_">
		<path class="st0" d="M406.34,176.27c-9.58,14.4-14.2,26.87-13.72,37.04"/>
	</g>
	<g id="POLYLINE_121_">
		<polyline class="st0" points="376.67,219.71 378.42,219.58 380.15,219.27 381.84,218.82 384.28,217.94 386.65,216.87 
			389.68,215.21 392.62,213.31 		"/>
	</g>
	<g id="POLYLINE_122_">
		<polyline class="st0" points="373.05,218.68 373.5,219.02 374.48,219.44 375.39,219.62 376.67,219.71 		"/>
	</g>
	<g id="POLYLINE_123_">
		<polyline class="st0" points="379.93,198.5 378.04,201.13 376.31,203.86 374.75,206.7 373.45,209.68 372.76,211.77 372.3,213.93 
			372.19,215.04 372.19,216.18 372.33,217.24 372.49,217.77 372.81,218.39 373.05,218.68 		"/>
	</g>
	<g id="ARC_11_">
		<path class="st0" d="M382.08,195.74c-0.73,0.91-1.44,1.83-2.15,2.76"/>
	</g>
	<g id="POLYLINE_124_">
		<polyline class="st0" points="395.52,156.84 396.37,159.17 396.91,161.6 397.15,164.07 397.1,166.74 396.74,169.4 396.13,172.02 
			395.48,174.08 394.71,176.1 392.86,180.02 390.69,183.82 388.27,187.5 385.69,191.07 382.08,195.74 		"/>
	</g>
	<g id="POLYLINE_125_">
		<polyline class="st0" points="371.61,141.42 374.59,142.09 378.44,143.19 382.18,144.59 383.98,145.42 385.74,146.35 
			388.22,147.94 390.51,149.8 392.53,151.93 394.22,154.31 395.52,156.84 		"/>
	</g>
	<g id="POLYLINE_126_">
		<polyline class="st0" points="363.07,121.18 364.65,122.24 366.08,123.49 367.35,124.9 368.19,126.05 368.93,127.27 
			369.57,128.56 370.12,129.89 370.61,131.39 370.99,132.92 371.33,134.8 371.54,136.71 371.65,140.23 371.61,141.42 		"/>
	</g>
	<g id="ELLIPSE_8_">
		<path class="st0" d="M363.07,121.18c-2.4-1.42-5.23-2.17-8.18-2.16"/>
	</g>
	<g id="POLYLINE_127_">
		<polyline class="st0" points="341.92,123.76 344.24,122.15 346.74,120.84 349.38,119.85 352.12,119.23 354.9,119.02 		"/>
	</g>
	<g id="POLYLINE_128_">
		<polyline class="st0" points="334.88,141.87 334.57,140.62 334.38,139.36 334.3,138.08 334.34,136.8 334.74,134.26 335.55,131.82 
			336.46,129.96 337.58,128.21 338.88,126.59 340.33,125.1 341.92,123.76 		"/>
	</g>
	<g id="POLYLINE_129_">
		<polyline class="st0" points="353.45,155.13 350.95,154.57 347.44,153.51 345.74,152.85 344.08,152.09 342.67,151.33 
			341.31,150.47 339.63,149.17 338.12,147.69 336.82,146.02 335.67,143.97 334.88,141.87 		"/>
	</g>
	<g id="POLYLINE_130_">
		<polyline class="st0" points="324.34,214.51 328.41,211.18 332.19,207.52 335.64,203.55 338.75,199.31 341.5,194.83 343.59,190.8 
			345.44,186.65 347.06,182.41 348.13,179.18 349.1,175.92 350.76,169.33 351.7,164.92 353.3,156.06 353.45,155.13 		"/>
	</g>
	<g id="POLYLINE_131_">
		<polyline class="st0" points="308.53,221.19 310.3,221.07 312.04,220.76 313.74,220.29 315.39,219.7 317.77,218.64 320.05,217.39 
			322.24,216.01 324.34,214.51 		"/>
	</g>
	<g id="POLYLINE_132_">
		<polyline class="st0" points="305.5,220.66 306.29,220.93 307.2,221.11 308.53,221.19 		"/>
	</g>
	<g id="POLYLINE_133_">
		<polyline class="st0" points="304.47,219.41 304.49,219.63 304.78,220.18 304.96,220.35 305.5,220.66 		"/>
	</g>
	<g id="POLYLINE_134_">
		<polyline class="st0" points="314.98,207.3 312.31,209.09 309.79,211.11 308.03,212.8 306.45,214.68 305.54,216.07 304.82,217.59 
			304.56,218.43 304.47,219.36 304.47,219.41 		"/>
	</g>
	<g id="POLYLINE_135_">
		<polyline class="st0" points="324.08,188.02 324.53,190.24 324.62,192.51 324.36,194.76 323.75,196.96 322.96,198.83 
			321.95,200.61 320.74,202.27 319.73,203.43 318.64,204.51 316.86,206 314.98,207.3 		"/>
	</g>
	<g id="POLYLINE_136_">
		<polyline class="st0" points="304.61,176.39 307.93,176.55 311.21,177.06 312.8,177.48 314.36,178.01 316.58,179.03 
			318.63,180.34 320.46,181.93 322.01,183.79 323.24,185.87 323.71,186.93 324.08,188.02 		"/>
	</g>
	<g id="LINE_141_">
		<line class="st0" x1="257.16" y1="176.39" x2="304.61" y2="176.39"/>
	</g>
	<g id="POLYLINE_137_">
		<polyline class="st0" points="147.96,285.59 148.17,278.7 148.82,271.83 149.9,265.02 151.41,258.29 153.35,251.67 155.7,245.19 
			158.47,238.87 161.63,232.73 165.16,226.81 169.07,221.12 172.87,216.24 176.94,211.58 181.26,207.15 185.82,202.98 
			190.62,199.06 195.62,195.43 200.82,192.08 206.44,188.9 212.24,186.06 218.2,183.58 224.29,181.45 230.5,179.68 236.8,178.3 
			243.18,177.28 249.61,176.65 253.38,176.46 257.16,176.39 		"/>
	</g>
	<g id="LINE_142_">
		<line class="st0" x1="147.96" y1="285.59" x2="147.96" y2="294.1"/>
	</g>
	<g id="LINE_143_">
		<line class="st0" x1="147.96" y1="294.1" x2="147.11" y2="294.1"/>
	</g>
	<g id="LINE_144_">
		<line class="st0" x1="163.52" y1="294.1" x2="162.67" y2="294.1"/>
	</g>
	<g id="LINE_145_">
		<line class="st0" x1="162.67" y1="285.59" x2="162.67" y2="294.1"/>
	</g>
	<g id="POLYLINE_138_">
		<polyline class="st0" points="162.67,285.59 162.88,279.36 163.49,273.15 164.51,267 165.94,260.92 167.77,254.96 169.99,249.13 
			172.6,243.46 175.57,237.97 178.9,232.7 182.28,228.04 185.92,223.59 189.83,219.36 193.99,215.39 198.38,211.67 202.99,208.22 
			207.8,205.06 212.43,202.38 217.21,199.98 222.12,197.84 225.87,196.44 229.67,195.19 233.51,194.11 237.4,193.19 242.65,192.22 
			247.95,191.56 253.28,191.19 257.16,191.11 		"/>
	</g>
	<g id="LINE_146_">
		<line class="st0" x1="257.16" y1="191.11" x2="304.61" y2="191.11"/>
	</g>
	<g id="POLYLINE_139_">
		<polyline class="st0" points="304.61,191.11 305.63,191.22 306.6,191.59 307.06,191.89 307.46,192.28 307.79,192.82 
			307.94,193.47 307.85,194 307.57,194.49 307.18,194.81 		"/>
	</g>
	<g id="POLYLINE_140_">
		<polyline class="st0" points="307.18,194.81 303.78,197.11 300.57,199.64 297.59,202.45 296.22,203.95 294.93,205.53 293.1,208.2 
			291.59,211.06 290.97,212.58 290.46,214.14 290.1,215.67 289.86,217.22 289.75,218.78 289.78,220.34 		"/>
	</g>
	<g id="POLYLINE_141_">
		<polyline class="st0" points="289.78,220.34 290.16,222.95 290.96,225.45 292.16,227.79 293.74,229.9 295.41,231.53 
			297.29,232.91 299.35,234.03 		"/>
	</g>
	<g id="POLYLINE_142_">
		<polyline class="st0" points="299.35,234.03 301.58,234.89 303.89,235.48 306.26,235.82 307.97,235.91 309.69,235.89 
			311.59,235.73 313.48,235.46 317.03,234.64 320.5,233.47 323.85,232.01 327.09,230.3 330.2,228.38 333.18,226.27 		"/>
	</g>
	<g id="POLYLINE_143_">
		<polyline class="st0" points="333.18,226.27 337.68,222.62 341.88,218.64 345.77,214.35 349.32,209.77 352.53,204.94 
			355.41,199.85 357.95,194.57 360.17,189.14 362.09,183.59 363.25,179.71 364.3,175.78 366.1,167.86 367.58,159.87 368.25,155.75 
					"/>
	</g>
	<g id="POLYLINE_144_">
		<polyline class="st0" points="368.25,155.75 372.23,156.68 374.44,157.37 375.89,157.92 377.3,158.56 378.68,159.32 380,160.23 
			381.18,161.37 381.64,161.98 382.01,162.66 		"/>
	</g>
	<g id="POLYLINE_145_">
		<polyline class="st0" points="382.01,162.66 382.29,163.53 382.43,164.43 382.44,165.51 382.32,166.58 382.02,167.94 
			381.59,169.26 380.52,171.79 379.27,174.17 377.89,176.47 374.9,180.87 371.66,185.18 370.51,186.64 		"/>
	</g>
	<g id="ARC_12_">
		<path class="st0" d="M370.51,186.64c-0.79,0.99-1.56,1.99-2.33,2.99"/>
	</g>
	<g id="POLYLINE_146_">
		<polyline class="st0" points="368.18,189.64 366.44,192.03 364.8,194.48 362.79,197.86 361,201.36 359.51,204.98 358.62,207.77 
			357.96,210.61 357.57,213.5 357.5,216.47 357.8,219.43 358.11,220.93 358.54,222.4 359.05,223.73 359.65,225.01 361.05,227.23 
			362.77,229.21 		"/>
	</g>
	<g id="POLYLINE_147_">
		<polyline class="st0" points="362.77,229.21 364.8,230.92 367.06,232.31 369.51,233.36 372.08,234.05 374.65,234.41 
			377.25,234.48 379.86,234.29 381.81,234 383.75,233.59 387.53,232.47 391.2,231.02 394.78,229.25 399.15,226.66 		"/>
	</g>
	<g id="POLYLINE_148_">
		<polyline class="st0" points="399.15,226.66 400.55,228.06 402.29,229.44 404.18,230.61 406.2,231.55 407.77,232.1 409.37,232.53 
			411.04,232.84 412.73,233.04 414.63,233.13 416.54,233.09 		"/>
	</g>
	<g id="POLYLINE_149_">
		<polyline class="st0" points="416.54,233.09 419.73,232.74 422.88,232.09 425.97,231.18 428.13,230.4 430.26,229.5 432.55,228.4 
			434.8,227.2 438.12,225.16 441.31,222.92 444.36,220.5 448.01,217.23 450.26,215 		"/>
	</g>
	<g id="ARC_13_">
		<path class="st0" d="M447.96,223.91c0.8-2.96,1.57-5.93,2.3-8.91"/>
	</g>
	<g id="POLYLINE_150_">
		<polyline class="st0" points="447.96,223.91 445.27,226.03 439.79,230.1 436.07,232.73 428.53,237.83 419.99,243.42 		"/>
	</g>
	<g id="POLYLINE_151_">
		<polyline class="st0" points="419.99,243.42 406.26,252.45 404.75,253.47 		"/>
	</g>
	<g id="POLYLINE_152_">
		<polyline class="st0" points="404.75,253.47 399.75,257.01 394.95,260.8 390.38,264.88 388.21,267.03 386.13,269.26 383.2,272.73 
			380.53,276.4 378.16,280.27 377.11,282.27 376.16,284.32 375.15,286.87 374.31,289.48 373.71,291.96 373.28,294.47 373.05,296.84 
			373.01,299.2 373.22,301.93 		"/>
	</g>
	<g id="POLYLINE_153_">
		<polyline class="st0" points="373.22,301.93 373.75,304.78 374.63,307.54 375.84,310.16 377.39,312.59 379.25,314.79 
			381.02,316.41 382.98,317.8 385.08,318.96 387.26,319.86 		"/>
	</g>
	<g id="ARC_14_">
		<path class="st0" d="M387.26,319.86c2.41,0.83,4.94,1.25,7.48,1.23"/>
	</g>
	<g id="POLYLINE_154_">
		<polyline class="st0" points="394.75,321.1 396.6,321.03 398.46,320.83 400.29,320.5 402.11,320.05 405.65,318.83 408.5,317.52 
			411.23,315.98 413.85,314.24 415.73,312.82 417.55,311.31 419.62,309.39 		"/>
	</g>
	<g id="POLYLINE_155_">
		<polyline class="st0" points="419.62,309.39 423.46,305.4 427.06,301.19 430.43,296.78 432.75,293.48 434.96,290.1 437.2,286.44 
			439.34,282.71 441.44,278.81 443.44,274.86 447.18,266.82 450.58,258.64 453.69,250.34 456.54,241.93 459.71,231.46 		"/>
	</g>
	<g id="POLYLINE_156_">
		<polyline class="st0" points="459.71,231.46 461.65,229.8 467.32,224.67 472.75,219.3 478.26,213.38 		"/>
	</g>
	<g id="POLYLINE_157_">
		<polyline class="st0" points="478.26,213.38 478.95,215.74 480.15,218.97 481.66,222.06 483.51,224.96 484.56,226.31 
			485.7,227.59 487.34,229.15 489.13,230.55 490.94,231.72 		"/>
	</g>
	<g id="POLYLINE_158_">
		<polyline class="st0" points="490.94,231.72 493.33,232.92 495.83,233.83 498.43,234.46 501.19,234.8 503.97,234.84 506.75,234.6 
			509.93,234.02 513.04,233.15 516.08,232.03 519.81,230.31 523.4,228.31 526.86,226.07 529.36,224.26 531.79,222.35 534.47,220.07 
			537.06,217.69 539.67,215.12 542.18,212.47 546.89,207.04 		"/>
	</g>
	<g id="ARC_15_">
		<path class="st0" d="M546.89,207.04c1.27-1.54,2.5-3.12,3.68-4.73"/>
	</g>
	<g id="POLYLINE_159_">
		<polyline class="st0" points="550.56,202.31 553.28,201.68 558.67,200.25 562.68,199.01 566.63,197.62 570.48,196.07 
			574.25,194.36 576.7,193.17 		"/>
	</g>
	<g id="POLYLINE_160_">
		<polyline class="st0" points="576.7,193.17 579.03,192.06 580.52,191.42 581.07,191.23 581.78,191.11 		"/>
	</g>
	<g id="LINE_147_">
		<line class="st0" x1="581.78" y1="191.11" x2="621.02" y2="191.11"/>
	</g>
	<g id="POLYLINE_161_">
		<polyline class="st0" points="621.02,191.11 627.25,191.31 633.46,191.93 639.62,192.95 645.69,194.38 651.65,196.21 
			657.48,198.43 663.15,201.04 668.64,204.01 673.91,207.34 678.58,210.71 683.03,214.36 687.25,218.27 691.23,222.43 
			694.95,226.82 698.39,231.43 701.56,236.23 704.23,240.87 706.64,245.65 708.77,250.56 710.18,254.3 711.42,258.1 712.51,261.95 
			713.42,265.84 714.17,269.77 714.76,273.72 		"/>
	</g>
	<g id="ARC_16_">
		<path class="st0" d="M714.25,275.45c0.4-0.48,0.58-1.11,0.51-1.73"/>
	</g>
	<g id="LINE_148_">
		<line class="st0" x1="711.66" y1="278.58" x2="714.25" y2="275.45"/>
	</g>
	<g id="ARC_17_">
		<path class="st0" d="M708.73,279.07c0.96,0.59,2.21,0.38,2.93-0.49"/>
	</g>
	<g id="ARC_18_">
		<path class="st0" d="M708.73,279.07c-3.6-2.21-8.32-1.08-10.52,2.53c-2.21,3.6-1.08,8.32,2.53,10.52c2.45,1.5,5.54,1.5,7.99,0"/>
	</g>
	<g id="ARC_19_">
		<path class="st0" d="M711.66,292.61c-0.72-0.87-1.97-1.07-2.93-0.49"/>
	</g>
	<g id="LINE_149_">
		<line class="st0" x1="711.66" y1="292.61" x2="714.25" y2="295.73"/>
	</g>
	<g id="ARC_20_">
		<path class="st0" d="M714.76,297.47c0.08-0.62-0.1-1.25-0.51-1.73"/>
	</g>
	<g id="POLYLINE_162_">
		<polyline class="st0" points="714.76,297.47 713.87,303.11 712.64,308.7 711.08,314.2 709.18,319.59 706.95,324.86 704.41,329.98 
			701.57,334.94 698.24,339.98 694.6,344.8 690.67,349.38 686.45,353.7 681.96,357.74 677.23,361.49 672.27,364.94 667.1,368.06 
			662.36,370.54 657.49,372.75 652.51,374.68 648.71,375.94 644.87,377.03 640.98,377.96 637.05,378.72 633.1,379.31 629.11,379.73 
			625.07,379.99 621.02,380.08 		"/>
	</g>
	<g id="LINE_150_">
		<line class="st0" x1="621.02" y1="380.08" x2="311.21" y2="380.08"/>
	</g>
	<g id="LINE_151_">
		<line class="st0" x1="311.21" y1="379.23" x2="311.21" y2="380.08"/>
	</g>
	<g id="POLYLINE_163_">
		<polyline class="st0" points="546.31,178.75 545.23,178.55 544.1,178.5 		"/>
	</g>
	<g id="LINE_152_">
		<line class="st0" x1="548.05" y1="179.23" x2="546.31" y2="178.75"/>
	</g>
	<g id="LINE_153_">
		<line class="st0" x1="547.97" y1="181.04" x2="548.05" y2="179.23"/>
	</g>
	<g id="POLYLINE_164_">
		<polyline class="st0" points="544.05,190.77 545.28,188.66 546.35,186.54 546.96,185.11 547.48,183.62 547.85,182.07 
			547.97,181.04 		"/>
	</g>
	<g id="LINE_154_">
		<line class="st0" x1="543.51" y1="191.63" x2="544.05" y2="190.77"/>
	</g>
	<g id="LINE_155_">
		<line class="st0" x1="543.13" y1="191.7" x2="543.51" y2="191.63"/>
	</g>
	<g id="POLYLINE_165_">
		<polyline class="st0" points="534.09,193.13 536.06,192.85 543.13,191.7 		"/>
	</g>
	<g id="ARC_21_">
		<path class="st0" d="M529.86,193.44c1.42-0.01,2.83-0.11,4.24-0.31"/>
	</g>
	<g id="POLYLINE_166_">
		<polyline class="st0" points="524.91,192.78 526.48,193.17 528.17,193.38 529.86,193.44 		"/>
	</g>
	<g id="LINE_156_">
		<line class="st0" x1="522.25" y1="191.89" x2="524.91" y2="192.78"/>
	</g>
	<g id="LINE_157_">
		<line class="st0" x1="523.68" y1="189.47" x2="522.25" y2="191.89"/>
	</g>
	<g id="POLYLINE_167_">
		<polyline class="st0" points="530.54,183.06 528.77,184.29 527.08,185.64 525.54,187.1 524.19,188.71 523.68,189.47 		"/>
	</g>
	<g id="POLYLINE_168_">
		<polyline class="st0" points="544.1,178.5 542.38,178.6 540.7,178.85 539.08,179.22 537.48,179.69 534.33,180.94 532.4,181.93 
			530.54,183.06 		"/>
	</g>
	<g id="POLYLINE_169_">
		<polyline class="st0" points="412.18,264.49 417.19,261.15 427.24,254.57 		"/>
	</g>
	<g id="LINE_158_">
		<line class="st0" x1="427.24" y1="254.57" x2="441.36" y2="245.24"/>
	</g>
	<g id="LINE_159_">
		<line class="st0" x1="441.36" y1="245.24" x2="441.35" y2="245.27"/>
	</g>
	<g id="POLYLINE_170_">
		<polyline class="st0" points="441.35,245.27 438.5,252.99 436.63,257.65 433.97,263.8 431.1,269.85 428,275.79 424.62,281.58 
			420.95,287.2 418.98,289.92 416.93,292.58 414.91,295 412.81,297.34 410.35,299.86 		"/>
	</g>
	<g id="POLYLINE_171_">
		<polyline class="st0" points="410.35,299.86 407.77,302.17 404.99,304.23 403.51,305.14 401.98,305.95 400.49,306.6 
			398.95,307.14 397.45,307.52 395.92,307.74 394.7,307.79 393.46,307.72 392.54,307.56 391.63,307.3 		"/>
	</g>
	<g id="POLYLINE_172_">
		<polyline class="st0" points="391.63,307.3 390.35,306.72 389.2,305.9 388.53,305.23 387.95,304.49 387.07,302.85 386.66,301.55 
			386.4,300.22 		"/>
	</g>
	<g id="POLYLINE_173_">
		<polyline class="st0" points="386.4,300.22 386.29,298.48 386.37,296.75 386.6,295.16 386.95,293.59 387.49,291.83 388.15,290.11 
			389.08,288.09 390.14,286.14 391.39,284.14 392.74,282.21 395.61,278.66 398.74,275.33 402.08,272.22 405.58,269.31 
			409.21,266.56 412.18,264.49 		"/>
	</g>
	<g id="POLYLINE_174_">
		<polyline class="st0" points="545.45,102.93 542.88,109.18 541.45,112.25 539.91,115.26 537.69,119.18 535.28,122.99 
			532.67,126.67 529.86,130.21 526.85,133.58 523.65,136.77 520.26,139.76 516.69,142.53 512.95,145.07 510.04,146.82 
			507.05,148.42 504.41,149.69 501.72,150.83 499.94,151.51 		"/>
	</g>
	<g id="ARC_22_">
		<path class="st0" d="M501.18,148.17c-0.42,1.11-0.83,2.23-1.24,3.35"/>
	</g>
	<g id="POLYLINE_175_">
		<polyline class="st0" points="501.18,148.17 506.21,135.15 511.49,122.33 515.16,113.96 519.02,105.66 523.15,97.38 525.35,93.25 
			527.64,89.18 530.03,85.2 532.52,81.34 534.98,77.86 537.67,74.47 539.7,72.25 541.86,70.26 543.43,69.11 544.51,68.51 
			545.21,68.23 545.66,68.15 		"/>
	</g>
	<g id="POLYLINE_176_">
		<polyline class="st0" points="545.66,68.15 546.27,68.77 546.61,69.26 547.12,70.26 547.56,71.41 547.9,72.58 548.3,74.33 
			548.59,76.09 548.94,79.58 549.03,83.13 548.9,86.68 548.56,90.21 547.85,94.52 546.81,98.77 545.45,102.93 		"/>
	</g>
	<g id="LINE_160_">
		<line class="st0" x1="347.05" y1="138.1" x2="348.14" y2="136.34"/>
	</g>
	<g id="POLYLINE_177_">
		<polyline class="st0" points="348.14,136.34 348.56,135.75 349.73,134.54 351.36,133.4 		"/>
	</g>
	<g id="POLYLINE_178_">
		<polyline class="st0" points="351.36,133.4 352.5,132.85 353.64,132.49 354.95,132.32 		"/>
	</g>
	<g id="ARC_23_">
		<path class="st0" d="M355.56,132.37c-0.2-0.03-0.4-0.05-0.61-0.05"/>
	</g>
	<g id="LINE_161_">
		<line class="st0" x1="355.56" y1="132.37" x2="356.46" y2="132.53"/>
	</g>
	<g id="LINE_162_">
		<line class="st0" x1="356.46" y1="132.53" x2="356.99" y2="133.27"/>
	</g>
	<g id="POLYLINE_179_">
		<polyline class="st0" points="356.99,133.27 357.49,134.16 357.88,135.27 358.14,136.46 358.32,138.12 358.36,139.81 		"/>
	</g>
	<g id="LINE_163_">
		<line class="st0" x1="358.36" y1="139.81" x2="358.33" y2="142.57"/>
	</g>
	<g id="LINE_164_">
		<line class="st0" x1="358.33" y1="142.57" x2="355.64" y2="142.01"/>
	</g>
	<g id="POLYLINE_180_">
		<polyline class="st0" points="355.64,142.01 353.25,141.42 350.97,140.62 349.76,140.03 348.7,139.35 		"/>
	</g>
	<g id="LINE_165_">
		<line class="st0" x1="348.7" y1="139.35" x2="347.05" y2="138.1"/>
	</g>
	<g id="CIRCLE">
		<path class="st0" d="M130.1,306.57c2.5,0,4.54,2.03,4.54,4.54s-2.03,4.54-4.54,4.54c-2.5,0-4.54-2.03-4.54-4.54
			S127.59,306.57,130.1,306.57L130.1,306.57z"/>
	</g>
	<g id="CIRCLE_1_">
		<path class="st0" d="M180.53,306.57c2.5,0,4.54,2.03,4.54,4.54s-2.03,4.54-4.54,4.54s-4.54-2.03-4.54-4.54
			S178.03,306.57,180.53,306.57L180.53,306.57z"/>
	</g>
	<g id="CIRCLE_2_">
		<path class="st0" d="M294.2,357.68c2.5,0,4.54,2.03,4.54,4.54s-2.03,4.54-4.54,4.54s-4.54-2.03-4.54-4.54
			S291.7,357.68,294.2,357.68L294.2,357.68z"/>
	</g>
	<g id="CIRCLE_3_">
		<path class="st0" d="M294.2,408.12c2.5,0,4.54,2.03,4.54,4.54s-2.03,4.54-4.54,4.54s-4.54-2.03-4.54-4.54
			S291.7,408.12,294.2,408.12L294.2,408.12z"/>
	</g>
	<g id="CIRCLE_4_">
		<path class="st0" d="M704.73,281.06c2.5,0,4.54,2.03,4.54,4.54s-2.03,4.54-4.54,4.54c-2.5,0-4.54-2.03-4.54-4.54
			S702.22,281.06,704.73,281.06L704.73,281.06z"/>
	</g>
</g>
<g>
	<g id="CIRCLE_8_">
		<path class="st0" d="M485.32,580.01c2.5,0,4.54,2.03,4.54,4.54c0,2.5-2.03,4.54-4.54,4.54s-4.54-2.03-4.54-4.54
			C480.78,582.04,482.81,580.01,485.32,580.01L485.32,580.01z"/>
	</g>
	<g id="CIRCLE_7_">
		<path class="st0" d="M705.85,580.01c2.5,0,4.54,2.03,4.54,4.54c0,2.5-2.03,4.54-4.54,4.54c-2.5,0-4.54-2.03-4.54-4.54
			C701.32,582.04,703.35,580.01,705.85,580.01L705.85,580.01z"/>
	</g>
	<g id="CIRCLE_6_">
		<path class="st0" d="M705.85,735.51c2.5,0,4.54,2.03,4.54,4.54c0,2.5-2.03,4.54-4.54,4.54c-2.5,0-4.54-2.03-4.54-4.54
			C701.32,737.54,703.35,735.51,705.85,735.51L705.85,735.51z"/>
	</g>
	<g id="CIRCLE_5_">
		<path class="st0" d="M485.32,735.51c2.5,0,4.54,2.03,4.54,4.54c0,2.5-2.03,4.54-4.54,4.54s-4.54-2.03-4.54-4.54
			C480.78,737.54,482.81,735.51,485.32,735.51L485.32,735.51z"/>
	</g>
	<g id="ARC_30_">
		<path class="st0" d="M555.2,732c-1.46-0.56-3.1,0.18-3.66,1.64c-0.12,0.32-0.18,0.66-0.18,1.01"/>
	</g>
	<g id="ARC_29_">
		<path class="st0" d="M555.2,732c3.07,1.17,6.51-0.38,7.68-3.45c1.17-3.07-0.38-6.51-3.45-7.68c-1.36-0.52-2.86-0.52-4.22,0"/>
	</g>
	<g id="ARC_28_">
		<path class="st0" d="M551.36,718.22c0,1.57,1.27,2.83,2.83,2.83c0.34,0,0.68-0.06,1.01-0.18"/>
	</g>
	<g id="LINE_180_">
		<line class="st0" x1="551.36" y1="702.34" x2="551.36" y2="718.22"/>
	</g>
	<g id="LINE_179_">
		<line class="st0" x1="524.15" y1="702.34" x2="551.36" y2="702.34"/>
	</g>
	<g id="LINE_178_">
		<line class="st0" x1="524.15" y1="750.53" x2="524.15" y2="702.34"/>
	</g>
	<g id="LINE_177_">
		<line class="st0" x1="474.83" y1="750.53" x2="524.15" y2="750.53"/>
	</g>
	<g id="LINE_176_">
		<line class="st0" x1="474.83" y1="574.06" x2="474.83" y2="750.53"/>
	</g>
	<g id="LINE_175_">
		<line class="st0" x1="716.34" y1="574.06" x2="474.83" y2="574.06"/>
	</g>
	<g id="LINE_174_">
		<line class="st0" x1="716.34" y1="750.53" x2="716.34" y2="574.06"/>
	</g>
	<g id="LINE_173_">
		<line class="st0" x1="551.36" y1="750.53" x2="716.34" y2="750.53"/>
	</g>
	<g id="LINE_172_">
		<line class="st0" x1="551.36" y1="734.65" x2="551.36" y2="750.53"/>
	</g>
	<g id="ARC_27_">
		<path class="st0" d="M641.65,734.37c0.78,0,1.42-0.63,1.42-1.42"/>
	</g>
	<g id="LINE_171_">
		<line class="st0" x1="607.06" y1="734.37" x2="616.98" y2="734.37"/>
	</g>
	<g id="LINE_170_">
		<line class="st0" x1="616.98" y1="734.37" x2="631.72" y2="734.37"/>
	</g>
	<g id="LINE_169_">
		<line class="st0" x1="631.72" y1="734.37" x2="641.65" y2="734.37"/>
	</g>
	<g id="ARC_26_">
		<path class="st0" d="M605.65,732.96c0,0.78,0.63,1.42,1.42,1.42"/>
	</g>
	<g id="LINE_168_">
		<line class="st0" x1="643.06" y1="698.37" x2="643.06" y2="732.96"/>
	</g>
	<g id="ARC_25_">
		<path class="st0" d="M643.06,698.37c0-0.78-0.63-1.42-1.42-1.42"/>
	</g>
	<g id="ARC_24_">
		<path class="st0" d="M607.06,696.96c-0.78,0-1.42,0.63-1.42,1.42"/>
	</g>
	<g id="LINE_167_">
		<line class="st0" x1="641.65" y1="696.96" x2="607.06" y2="696.96"/>
	</g>
	<g id="LINE_166_">
		<line class="st0" x1="605.65" y1="732.96" x2="605.65" y2="698.37"/>
	</g>
</g>
<g>
	<g id="CIRCLE_12_">
		<path class="st0" d="M122.16,580.01c2.5,0,4.54,2.03,4.54,4.54c0,2.5-2.03,4.54-4.54,4.54c-2.5,0-4.54-2.03-4.54-4.54
			C117.63,582.04,119.66,580.01,122.16,580.01L122.16,580.01z"/>
	</g>
	<g id="CIRCLE_11_">
		<path class="st0" d="M342.7,580.01c2.5,0,4.54,2.03,4.54,4.54c0,2.5-2.03,4.54-4.54,4.54s-4.54-2.03-4.54-4.54
			C338.16,582.04,340.19,580.01,342.7,580.01L342.7,580.01z"/>
	</g>
	<g id="CIRCLE_10_">
		<path class="st0" d="M342.7,735.51c2.5,0,4.54,2.03,4.54,4.54c0,2.5-2.03,4.54-4.54,4.54s-4.54-2.03-4.54-4.54
			C338.16,737.54,340.19,735.51,342.7,735.51L342.7,735.51z"/>
	</g>
	<g id="CIRCLE_9_">
		<path class="st0" d="M122.16,735.51c2.5,0,4.54,2.03,4.54,4.54c0,2.5-2.03,4.54-4.54,4.54c-2.5,0-4.54-2.03-4.54-4.54
			C117.63,737.54,119.66,735.51,122.16,735.51L122.16,735.51z"/>
	</g>
	<g id="LINE_11_">
		<line class="st0" x1="111.67" y1="574.06" x2="111.67" y2="750.53"/>
	</g>
	<g id="LINE_10_">
		<line class="st0" x1="353.18" y1="574.06" x2="111.67" y2="574.06"/>
	</g>
	<g id="LINE_9_">
		<line class="st0" x1="353.18" y1="750.53" x2="353.18" y2="574.06"/>
	</g>
	<g id="LINE_8_">
		<line class="st0" x1="111.67" y1="750.53" x2="353.18" y2="750.53"/>
	</g>
</g>
<g>
	<path d="M113.13,147.51v4.01h-0.32v-8.53h2.78c0.9,0,1.59,0.19,2.07,0.58s0.73,0.96,0.73,1.7c0,0.48-0.15,0.92-0.46,1.31
		s-0.73,0.65-1.26,0.76c0.61,0.11,1.05,0.33,1.32,0.67s0.4,0.78,0.4,1.32v0.8c0,0.27,0.03,0.5,0.1,0.71s0.17,0.38,0.32,0.52v0.15
		h-0.31c-0.14-0.16-0.25-0.36-0.32-0.59s-0.11-0.5-0.11-0.79v-0.78c0-0.58-0.2-1.03-0.59-1.35s-0.96-0.49-1.7-0.49H113.13z
		 M113.13,147.2h2.4c0.87,0,1.51-0.18,1.92-0.55s0.62-0.82,0.62-1.37c0-0.64-0.21-1.12-0.62-1.46s-1.04-0.51-1.86-0.51h-2.46V147.2z
		"/>
	<path d="M126.85,150.37c-0.18,0.3-0.52,0.59-1.03,0.86s-1.14,0.41-1.88,0.41c-0.98,0-1.77-0.35-2.38-1.04s-0.91-1.6-0.91-2.71
		v-1.39c0-1.07,0.29-1.94,0.88-2.62s1.36-1.01,2.3-1.01c0.91,0,1.64,0.23,2.18,0.7s0.8,1.07,0.78,1.8l-0.01,0.04h-0.26
		c0-0.65-0.23-1.19-0.7-1.6s-1.13-0.62-1.98-0.62c-0.86,0-1.56,0.31-2.08,0.92s-0.79,1.41-0.79,2.38v1.41
		c0,1.02,0.27,1.84,0.81,2.48s1.26,0.96,2.16,0.96c0.68,0,1.25-0.11,1.69-0.33s0.75-0.48,0.91-0.77v-2.43h-2.61v-0.32h2.92V150.37z"
		/>
	<path d="M129.21,151.51v-8.53h2.24c0.88,0,1.57,0.18,2.06,0.54s0.73,0.91,0.73,1.64c0,0.48-0.12,0.88-0.35,1.22
		s-0.56,0.56-0.99,0.67l-0.01,0.04c0.5,0.07,0.93,0.3,1.27,0.69s0.52,0.85,0.52,1.37c0,0.75-0.24,1.32-0.72,1.73
		s-1.12,0.62-1.91,0.62H129.21z M129.53,146.98h2.16c0.74-0.01,1.3-0.17,1.67-0.47s0.57-0.76,0.57-1.37c0-0.61-0.21-1.07-0.62-1.38
		s-1.03-0.47-1.84-0.47h-1.93V146.98z M129.53,147.3v3.9h2.53c0.72,0,1.29-0.18,1.7-0.53s0.62-0.85,0.62-1.49
		c0-0.56-0.21-1.02-0.63-1.36s-0.98-0.52-1.69-0.52H129.53z"/>
	<path d="M147.38,150.37c-0.18,0.3-0.52,0.59-1.03,0.86s-1.14,0.41-1.88,0.41c-0.98,0-1.77-0.35-2.38-1.04s-0.91-1.6-0.91-2.71
		v-1.39c0-1.07,0.29-1.94,0.88-2.62s1.36-1.01,2.3-1.01c0.91,0,1.64,0.23,2.18,0.7s0.8,1.07,0.78,1.8l-0.01,0.04h-0.26
		c0-0.65-0.23-1.19-0.7-1.6s-1.13-0.62-1.98-0.62c-0.86,0-1.56,0.31-2.08,0.92s-0.79,1.41-0.79,2.38v1.41
		c0,1.02,0.27,1.84,0.81,2.48s1.26,0.96,2.16,0.96c0.68,0,1.25-0.11,1.69-0.33s0.75-0.48,0.91-0.77v-2.43h-2.61v-0.32h2.92V150.37z"
		/>
	<path d="M149.97,151.51h-0.32v-9.14h0.32V151.51z"/>
	<path d="M156.03,150.34c-0.22,0.38-0.54,0.69-0.98,0.93s-0.96,0.36-1.58,0.36c-0.59,0-1.05-0.16-1.39-0.48s-0.5-0.76-0.5-1.3
		c0-0.53,0.25-0.98,0.75-1.34s1.13-0.54,1.88-0.54h1.81v-0.93c0-0.53-0.17-0.94-0.51-1.23s-0.81-0.44-1.43-0.44
		c-0.57,0-1.04,0.14-1.39,0.42s-0.52,0.63-0.52,1.07l-0.26-0.01l-0.01-0.03c-0.02-0.49,0.17-0.91,0.57-1.25s0.94-0.51,1.61-0.51
		c0.68,0,1.22,0.17,1.63,0.52s0.62,0.84,0.62,1.49v3.18c0,0.22,0.01,0.44,0.04,0.65s0.07,0.42,0.13,0.63h-0.35
		c-0.05-0.28-0.08-0.49-0.1-0.62s-0.03-0.29-0.03-0.45V150.34z M153.47,151.33c0.63,0,1.16-0.14,1.6-0.42s0.75-0.67,0.96-1.19v-1.42
		h-1.79c-0.66,0-1.21,0.15-1.66,0.45s-0.68,0.68-0.68,1.12c0,0.43,0.14,0.77,0.43,1.05S153,151.33,153.47,151.33z"/>
	<path d="M162.27,149.96c0-0.34-0.14-0.64-0.43-0.92s-0.79-0.49-1.5-0.65c-0.75-0.16-1.3-0.37-1.64-0.62s-0.51-0.63-0.51-1.12
		c0-0.45,0.19-0.83,0.57-1.14s0.9-0.46,1.55-0.46c0.7,0,1.25,0.16,1.65,0.49s0.59,0.76,0.57,1.28l-0.01,0.04h-0.27
		c0-0.41-0.17-0.77-0.52-1.06s-0.82-0.44-1.42-0.44c-0.59,0-1.04,0.13-1.35,0.38s-0.46,0.55-0.46,0.89c0,0.33,0.13,0.62,0.39,0.85
		s0.77,0.44,1.54,0.62c0.71,0.16,1.24,0.39,1.61,0.67s0.55,0.68,0.55,1.19c0,0.5-0.2,0.9-0.61,1.21s-0.95,0.46-1.62,0.46
		c-0.74,0-1.32-0.17-1.74-0.5s-0.62-0.73-0.59-1.2l0.01-0.04h0.26c0.03,0.5,0.25,0.86,0.64,1.08s0.87,0.33,1.41,0.33
		c0.59,0,1.05-0.14,1.39-0.41S162.27,150.32,162.27,149.96z"/>
	<path d="M168.24,149.96c0-0.34-0.14-0.64-0.43-0.92s-0.79-0.49-1.5-0.65c-0.75-0.16-1.3-0.37-1.64-0.62s-0.51-0.63-0.51-1.12
		c0-0.45,0.19-0.83,0.57-1.14s0.9-0.46,1.55-0.46c0.7,0,1.25,0.16,1.65,0.49s0.59,0.76,0.57,1.28l-0.01,0.04h-0.27
		c0-0.41-0.17-0.77-0.52-1.06s-0.82-0.44-1.42-0.44c-0.59,0-1.04,0.13-1.35,0.38s-0.46,0.55-0.46,0.89c0,0.33,0.13,0.62,0.39,0.85
		s0.77,0.44,1.54,0.62c0.71,0.16,1.24,0.39,1.61,0.67s0.55,0.68,0.55,1.19c0,0.5-0.2,0.9-0.61,1.21s-0.95,0.46-1.62,0.46
		c-0.74,0-1.32-0.17-1.74-0.5s-0.62-0.73-0.59-1.2l0.01-0.04h0.26c0.03,0.5,0.25,0.86,0.64,1.08s0.87,0.33,1.41,0.33
		c0.59,0,1.05-0.14,1.39-0.41S168.24,150.32,168.24,149.96z"/>
</g>
<g>
	<path d="M117.36,550.21h-4.2v4.2h-0.32v-8.53h5.11v0.32h-4.79v3.69h4.2V550.21z"/>
	<path d="M121.93,548.3l-0.41-0.04c-0.57,0-1.03,0.18-1.38,0.55s-0.58,0.85-0.69,1.44v4.15h-0.32v-6.34h0.26l0.06,1.1v0.22
		c0.18-0.45,0.44-0.81,0.79-1.06s0.78-0.38,1.28-0.38c0.09,0,0.17,0.01,0.25,0.02s0.14,0.03,0.2,0.04L121.93,548.3z"/>
	<path d="M122.53,551.11c0-0.93,0.26-1.69,0.77-2.28s1.18-0.88,2-0.88c0.82,0,1.49,0.29,2.01,0.88s0.77,1.35,0.77,2.28v0.25
		c0,0.93-0.26,1.7-0.77,2.29s-1.18,0.88-2,0.88c-0.82,0-1.49-0.29-2.01-0.88s-0.77-1.35-0.77-2.29V551.11z M122.85,551.36
		c0,0.8,0.22,1.47,0.67,2.02s1.04,0.83,1.8,0.83c0.74,0,1.34-0.28,1.78-0.83s0.67-1.23,0.67-2.02v-0.25c0-0.78-0.22-1.45-0.67-2.01
		s-1.04-0.84-1.79-0.84c-0.75,0-1.34,0.28-1.79,0.84s-0.67,1.23-0.67,2.01V551.36z"/>
	<path d="M129.87,548.07l0.04,1.28c0.2-0.44,0.48-0.78,0.84-1.03s0.82-0.37,1.35-0.37c0.69,0,1.21,0.22,1.56,0.65
		s0.52,1.13,0.52,2.07v3.73h-0.32v-3.74c0-0.88-0.16-1.5-0.47-1.86s-0.74-0.54-1.28-0.54c-0.66,0-1.17,0.19-1.52,0.58
		s-0.58,0.88-0.67,1.49v4.07h-0.32v-3.25h-0.02c0-0.07,0-0.15,0-0.23s0.01-0.15,0.01-0.23v-2.64H129.87z"/>
	<path d="M136.82,546.36v1.71h1.56v0.32h-1.56v4.38c0,0.52,0.09,0.89,0.26,1.11s0.41,0.33,0.7,0.33c0.11,0,0.2,0,0.28-0.01
		s0.2-0.02,0.34-0.04l0.06,0.29c-0.1,0.03-0.2,0.05-0.3,0.06s-0.22,0.02-0.36,0.02c-0.43,0-0.75-0.14-0.97-0.42
		s-0.33-0.72-0.33-1.34v-4.38h-1.17v-0.32h1.17v-1.71H136.82z"/>
	<path d="M151,553.26c-0.18,0.3-0.52,0.59-1.03,0.86s-1.14,0.41-1.88,0.41c-0.98,0-1.77-0.35-2.38-1.04s-0.91-1.6-0.91-2.71v-1.39
		c0-1.07,0.29-1.94,0.88-2.62s1.36-1.01,2.3-1.01c0.91,0,1.64,0.23,2.18,0.7s0.8,1.07,0.78,1.8l-0.01,0.04h-0.26
		c0-0.65-0.23-1.19-0.7-1.6s-1.13-0.62-1.98-0.62c-0.86,0-1.56,0.31-2.08,0.92s-0.79,1.41-0.79,2.38v1.41
		c0,1.02,0.27,1.84,0.81,2.48s1.26,0.96,2.16,0.96c0.68,0,1.25-0.11,1.69-0.33s0.75-0.48,0.91-0.77v-2.43h-2.61v-0.32H151V553.26z"
		/>
	<path d="M153.59,554.41h-0.32v-9.14h0.32V554.41z"/>
	<path d="M159.65,553.24c-0.22,0.38-0.54,0.69-0.98,0.93s-0.96,0.36-1.58,0.36c-0.59,0-1.05-0.16-1.39-0.48s-0.5-0.76-0.5-1.3
		c0-0.53,0.25-0.98,0.75-1.34s1.13-0.54,1.88-0.54h1.81v-0.93c0-0.53-0.17-0.94-0.51-1.23s-0.81-0.44-1.43-0.44
		c-0.57,0-1.04,0.14-1.39,0.42s-0.52,0.63-0.52,1.07l-0.26-0.01l-0.01-0.03c-0.02-0.49,0.17-0.91,0.57-1.25s0.94-0.51,1.61-0.51
		c0.68,0,1.22,0.17,1.63,0.52s0.62,0.84,0.62,1.49v3.18c0,0.22,0.01,0.44,0.04,0.65s0.07,0.42,0.13,0.63h-0.35
		c-0.05-0.28-0.08-0.49-0.1-0.62s-0.03-0.29-0.03-0.45V553.24z M157.09,554.22c0.63,0,1.16-0.14,1.6-0.42s0.75-0.67,0.96-1.19v-1.42
		h-1.79c-0.66,0-1.21,0.15-1.66,0.45s-0.68,0.68-0.68,1.12c0,0.43,0.14,0.77,0.43,1.05S156.62,554.22,157.09,554.22z"/>
	<path d="M165.89,552.85c0-0.34-0.14-0.64-0.43-0.92s-0.79-0.49-1.5-0.65c-0.75-0.16-1.3-0.37-1.64-0.62s-0.51-0.63-0.51-1.12
		c0-0.45,0.19-0.83,0.57-1.14s0.9-0.46,1.55-0.46c0.7,0,1.25,0.16,1.65,0.49s0.59,0.76,0.57,1.28l-0.01,0.04h-0.27
		c0-0.41-0.17-0.77-0.52-1.06s-0.82-0.44-1.42-0.44c-0.59,0-1.04,0.13-1.35,0.38s-0.46,0.55-0.46,0.89c0,0.33,0.13,0.62,0.39,0.85
		s0.77,0.44,1.54,0.62c0.71,0.16,1.24,0.39,1.61,0.67s0.55,0.68,0.55,1.19c0,0.5-0.2,0.9-0.61,1.21s-0.95,0.46-1.62,0.46
		c-0.74,0-1.32-0.17-1.74-0.5s-0.62-0.73-0.59-1.2l0.01-0.04h0.26c0.03,0.5,0.25,0.86,0.64,1.08s0.87,0.33,1.41,0.33
		c0.59,0,1.05-0.14,1.39-0.41S165.89,553.21,165.89,552.85z"/>
	<path d="M171.86,552.85c0-0.34-0.14-0.64-0.43-0.92s-0.79-0.49-1.5-0.65c-0.75-0.16-1.3-0.37-1.64-0.62s-0.51-0.63-0.51-1.12
		c0-0.45,0.19-0.83,0.57-1.14s0.9-0.46,1.55-0.46c0.7,0,1.25,0.16,1.65,0.49s0.59,0.76,0.57,1.28l-0.01,0.04h-0.27
		c0-0.41-0.18-0.77-0.53-1.06s-0.82-0.44-1.42-0.44c-0.59,0-1.04,0.13-1.35,0.38s-0.46,0.55-0.46,0.89c0,0.33,0.13,0.62,0.39,0.85
		s0.77,0.44,1.54,0.62c0.71,0.16,1.24,0.39,1.61,0.67s0.55,0.68,0.55,1.19c0,0.5-0.2,0.9-0.61,1.21s-0.95,0.46-1.62,0.46
		c-0.74,0-1.32-0.17-1.74-0.5s-0.62-0.73-0.59-1.2l0.01-0.04h0.26c0.03,0.5,0.25,0.86,0.64,1.08s0.87,0.33,1.41,0.33
		c0.59,0,1.05-0.14,1.4-0.41S171.86,553.21,171.86,552.85z"/>
</g>
<g>
	<path d="M476,554.41v-8.53h2.24c0.88,0,1.57,0.18,2.06,0.54s0.73,0.91,0.73,1.64c0,0.48-0.12,0.88-0.35,1.22s-0.56,0.56-0.99,0.67
		l-0.01,0.04c0.5,0.07,0.93,0.3,1.27,0.69s0.52,0.85,0.52,1.37c0,0.75-0.24,1.32-0.72,1.73s-1.12,0.62-1.91,0.62H476z
		 M476.32,549.88h2.16c0.74-0.01,1.3-0.17,1.67-0.47s0.57-0.76,0.57-1.37c0-0.61-0.21-1.07-0.62-1.38s-1.03-0.47-1.84-0.47h-1.93
		V549.88z M476.32,550.19v3.9h2.53c0.72,0,1.29-0.18,1.7-0.53s0.62-0.85,0.62-1.49c0-0.56-0.21-1.02-0.63-1.36s-0.98-0.52-1.69-0.52
		H476.32z"/>
	<path d="M487.02,553.24c-0.22,0.38-0.54,0.69-0.98,0.93s-0.96,0.36-1.58,0.36c-0.59,0-1.05-0.16-1.39-0.48s-0.5-0.76-0.5-1.3
		c0-0.53,0.25-0.98,0.75-1.34s1.13-0.54,1.88-0.54h1.81v-0.93c0-0.53-0.17-0.94-0.51-1.23s-0.81-0.44-1.43-0.44
		c-0.57,0-1.04,0.14-1.39,0.42s-0.52,0.63-0.52,1.07l-0.26-0.01l-0.01-0.03c-0.02-0.49,0.17-0.91,0.57-1.25s0.94-0.51,1.61-0.51
		c0.68,0,1.22,0.17,1.63,0.52s0.62,0.84,0.62,1.49v3.18c0,0.22,0.01,0.44,0.04,0.65s0.07,0.42,0.13,0.63h-0.35
		c-0.05-0.28-0.08-0.49-0.1-0.62s-0.03-0.29-0.03-0.45V553.24z M484.47,554.22c0.63,0,1.16-0.14,1.6-0.42s0.75-0.67,0.96-1.19v-1.42
		h-1.79c-0.66,0-1.21,0.15-1.66,0.45s-0.68,0.68-0.68,1.12c0,0.43,0.14,0.77,0.43,1.05S483.99,554.22,484.47,554.22z"/>
	<path d="M491.53,554.21c0.54,0,1.01-0.15,1.42-0.44s0.62-0.73,0.62-1.32h0.27l0.01,0.04c0.02,0.62-0.21,1.12-0.68,1.49
		s-1.01,0.55-1.63,0.55c-0.81,0-1.44-0.29-1.9-0.87s-0.69-1.35-0.69-2.3v-0.25c0-0.95,0.23-1.71,0.69-2.29s1.09-0.87,1.89-0.87
		c0.66,0,1.21,0.19,1.67,0.58s0.67,0.93,0.66,1.63l-0.01,0.04h-0.27c0-0.62-0.2-1.1-0.6-1.43s-0.88-0.5-1.45-0.5
		c-0.74,0-1.3,0.27-1.69,0.8s-0.57,1.21-0.57,2.05v0.25c0,0.84,0.19,1.53,0.57,2.06S490.78,554.21,491.53,554.21z"/>
	<path d="M496.65,551.17h-0.87v3.24h-0.32v-9.14h0.32v5.58h0.74l2.88-2.78h0.37l0.01,0.04l-2.91,2.85l3.13,3.42l-0.01,0.03h-0.37
		L496.65,551.17z"/>
	<path d="M512.27,553.26c-0.18,0.3-0.52,0.59-1.03,0.86s-1.14,0.41-1.88,0.41c-0.98,0-1.77-0.35-2.38-1.04s-0.91-1.6-0.91-2.71
		v-1.39c0-1.07,0.29-1.94,0.88-2.62s1.36-1.01,2.3-1.01c0.91,0,1.64,0.23,2.18,0.7s0.8,1.07,0.78,1.8l-0.01,0.04h-0.26
		c0-0.65-0.23-1.19-0.7-1.6s-1.13-0.62-1.98-0.62c-0.86,0-1.56,0.31-2.08,0.92s-0.79,1.41-0.79,2.38v1.41
		c0,1.02,0.27,1.84,0.81,2.48s1.26,0.96,2.16,0.96c0.68,0,1.25-0.11,1.69-0.33s0.75-0.48,0.91-0.77v-2.43h-2.61v-0.32h2.92V553.26z"
		/>
	<path d="M514.86,554.41h-0.32v-9.14h0.32V554.41z"/>
	<path d="M520.92,553.24c-0.22,0.38-0.54,0.69-0.98,0.93s-0.96,0.36-1.58,0.36c-0.59,0-1.05-0.16-1.39-0.48s-0.5-0.76-0.5-1.3
		c0-0.53,0.25-0.98,0.75-1.34s1.13-0.54,1.88-0.54h1.81v-0.93c0-0.53-0.17-0.94-0.51-1.23s-0.81-0.44-1.43-0.44
		c-0.57,0-1.04,0.14-1.39,0.42s-0.52,0.63-0.52,1.07l-0.26-0.01l-0.01-0.03c-0.02-0.49,0.17-0.91,0.57-1.25s0.94-0.51,1.61-0.51
		c0.68,0,1.22,0.17,1.63,0.52s0.62,0.84,0.62,1.49v3.18c0,0.22,0.01,0.44,0.04,0.65s0.07,0.42,0.13,0.63h-0.35
		c-0.05-0.28-0.08-0.49-0.1-0.62s-0.03-0.29-0.03-0.45V553.24z M518.36,554.22c0.63,0,1.16-0.14,1.6-0.42s0.75-0.67,0.96-1.19v-1.42
		h-1.79c-0.66,0-1.21,0.15-1.66,0.45s-0.68,0.68-0.68,1.12c0,0.43,0.14,0.77,0.43,1.05S517.89,554.22,518.36,554.22z"/>
	<path d="M527.16,552.85c0-0.34-0.14-0.64-0.43-0.92s-0.79-0.49-1.5-0.65c-0.75-0.16-1.3-0.37-1.64-0.62s-0.51-0.63-0.51-1.12
		c0-0.45,0.19-0.83,0.57-1.14s0.9-0.46,1.55-0.46c0.7,0,1.25,0.16,1.65,0.49s0.59,0.76,0.57,1.28l-0.01,0.04h-0.27
		c0-0.41-0.17-0.77-0.52-1.06s-0.82-0.44-1.42-0.44c-0.59,0-1.04,0.13-1.35,0.38s-0.46,0.55-0.46,0.89c0,0.33,0.13,0.62,0.39,0.85
		s0.77,0.44,1.54,0.62c0.71,0.16,1.24,0.39,1.61,0.67s0.55,0.68,0.55,1.19c0,0.5-0.2,0.9-0.61,1.21s-0.95,0.46-1.62,0.46
		c-0.74,0-1.32-0.17-1.74-0.5s-0.62-0.73-0.59-1.2l0.01-0.04h0.26c0.03,0.5,0.25,0.86,0.64,1.08s0.87,0.33,1.41,0.33
		c0.59,0,1.05-0.14,1.39-0.41S527.16,553.21,527.16,552.85z"/>
	<path d="M533.13,552.85c0-0.34-0.14-0.64-0.43-0.92s-0.79-0.49-1.5-0.65c-0.75-0.16-1.3-0.37-1.64-0.62s-0.51-0.63-0.51-1.12
		c0-0.45,0.19-0.83,0.57-1.14s0.9-0.46,1.55-0.46c0.7,0,1.25,0.16,1.65,0.49s0.59,0.76,0.57,1.28l-0.01,0.04h-0.27
		c0-0.41-0.17-0.77-0.52-1.06s-0.82-0.44-1.42-0.44c-0.59,0-1.04,0.13-1.35,0.38s-0.46,0.55-0.46,0.89c0,0.33,0.13,0.62,0.39,0.85
		s0.77,0.44,1.54,0.62c0.71,0.16,1.24,0.39,1.61,0.67s0.55,0.68,0.55,1.19c0,0.5-0.2,0.9-0.61,1.21s-0.95,0.46-1.62,0.46
		c-0.74,0-1.32-0.17-1.74-0.5s-0.62-0.73-0.59-1.2l0.01-0.04h0.26c0.03,0.5,0.25,0.86,0.64,1.08s0.87,0.33,1.41,0.33
		c0.59,0,1.05-0.14,1.39-0.41S533.13,553.21,533.13,552.85z"/>
</g>
</svg>
